<svg
  id="visual"
  xmlns="http://www.w3.org/2000/svg"
  xmlns:xlink="http://www.w3.org/1999/xlink"
  version="1.1"
  viewBox="0 0 1920 1080"
  preserveAspectRatio="xMidYMid slice"
>
  <rect x="0" y="0" width="1920" height="1080" fill="#ffffff"></rect>
  <defs>
    <linearGradient id="grad1_0" x1="43.8%" y1="0%" x2="100%" y2="100%">
      <stop offset="14.444444444444446%" stop-color="#ffffff" stop-opacity="1"></stop>
      <stop offset="85.55555555555554%" stop-color="#ffffff" stop-opacity="1"></stop>
    </linearGradient>
  </defs>
  <defs>
    <linearGradient id="grad2_0" x1="0%" y1="0%" x2="56.3%" y2="100%">
      <stop offset="14.444444444444446%" stop-color="#ffffff" stop-opacity="1"></stop>
      <stop offset="85.55555555555554%" stop-color="#ffffff" stop-opacity="1"></stop>
    </linearGradient>
  </defs>
  <g transform="translate(1920, 0)">
    <path
      d="M0 486C-87.5 474.7 -175 463.5 -243 420.9C-311 378.3 -359.4 304.4 -396.6 229C-433.9 153.6 -459.9 76.8 -486 0L0 0Z"
      fill="#deedff"
    ></path>
  </g>
  <g transform="translate(0, 1080)">
    <path
      d="M0 -486C91 -476.7 182 -467.5 243 -420.9C304 -374.3 335.1 -290.4 370.7 -214C406.2 -137.6 446.1 -68.8 486 0L0 0Z"
      fill="#deedff"
    ></path>
  </g>
</svg>
